<?xml version="1.0" encoding="UTF-8" standalone="no"?>
<svg
   xmlns:dc="http://purl.org/dc/elements/1.1/"
   xmlns:cc="http://creativecommons.org/ns#"
   xmlns:rdf="http://www.w3.org/1999/02/22-rdf-syntax-ns#"
   xmlns:svg="http://www.w3.org/2000/svg"
   xmlns="http://www.w3.org/2000/svg"
   xmlns:sodipodi="http://sodipodi.sourceforge.net/DTD/sodipodi-0.dtd"
   xmlns:inkscape="http://www.inkscape.org/namespaces/inkscape"
   viewBox="0 0 16 16"
   version="1.1"
   id="svg17"
   sodipodi:docname="vpn_off.svg"
   inkscape:version="1.0.2 (1.0.2+r75+1)"
   inkscape:export-filename="/home/david/Descargas/carpeta sin título/NordVPNindicator/vpn_error.png"
   inkscape:export-xdpi="2049"
   inkscape:export-ydpi="2049">
  <metadata
     id="metadata21">
    <rdf:RDF>
      <cc:Work
         rdf:about="">
        <dc:format>image/svg+xml</dc:format>
        <dc:type
           rdf:resource="http://purl.org/dc/dcmitype/StillImage" />
        <dc:title></dc:title>
      </cc:Work>
    </rdf:RDF>
  </metadata>
  <sodipodi:namedview
     pagecolor="#ffffff"
     bordercolor="#666666"
     borderopacity="1"
     objecttolerance="10"
     gridtolerance="10"
     guidetolerance="10"
     inkscape:pageopacity="0"
     inkscape:pageshadow="2"
     inkscape:window-width="1600"
     inkscape:window-height="867"
     id="namedview19"
     showgrid="false"
     inkscape:zoom="12.955929"
     inkscape:cx="-4.8877044"
     inkscape:cy="16.297535"
     inkscape:window-x="0"
     inkscape:window-y="0"
     inkscape:window-maximized="1"
     inkscape:current-layer="svg17"
     inkscape:document-rotation="0"
     showborder="true" />
  <defs
     id="defs13">
    <linearGradient
       gradientUnits="userSpaceOnUse"
       y2="-2.623"
       x2="0"
       y1="986.67"
       id="0">
      <stop
         stop-color="#ffce3b"
         id="stop2" />
      <stop
         offset="1"
         stop-color="#ffd762"
         id="stop4" />
    </linearGradient>
    <linearGradient
       y2="-2.623"
       x2="0"
       y1="986.67"
       gradientUnits="userSpaceOnUse"
       id="linearGradient11">
      <stop
         stop-color="#ffce3b"
         id="stop7" />
      <stop
         offset="1"
         stop-color="#fef4ab"
         id="stop9" />
    </linearGradient>
  </defs>
  <g
     id="g8"
     transform="translate(-156.0269,-161.25748)" />
  <g
     id="g10"
     transform="translate(-156.0269,-161.25748)" />
  <g
     id="g12"
     transform="translate(-156.0269,-161.25748)" />
  <g
     id="g14"
     transform="translate(-156.0269,-161.25748)" />
  <g
     id="g16"
     transform="translate(-156.0269,-161.25748)" />
  <g
     id="g18"
     transform="translate(-156.0269,-161.25748)" />
  <g
     id="g20"
     transform="translate(-156.0269,-161.25748)" />
  <g
     id="g22"
     transform="translate(-156.0269,-161.25748)" />
  <g
     id="g24"
     transform="translate(-156.0269,-161.25748)" />
  <g
     id="g26"
     transform="translate(-156.0269,-161.25748)" />
  <g
     id="g28"
     transform="translate(-156.0269,-161.25748)" />
  <g
     id="g30"
     transform="translate(-156.0269,-161.25748)" />
  <g
     id="g32"
     transform="translate(-156.0269,-161.25748)" />
  <g
     id="g34"
     transform="translate(-156.0269,-161.25748)" />
  <g
     id="g36"
     transform="translate(-156.0269,-161.25748)" />
  <path
     id="path15-6-7-6"
     style="fill:#666666;stroke-width:1.34582"
     d="m 7.9987922,-0.0742469 c -0.1039643,0 -0.2065774,0.030025 -0.2943973,0.094624 C 6.8635516,0.6330941 4.3073009,2.3078713 1.1750825,2.6016119 0.79856876,2.6359302 0.50923839,2.9485593 0.50217285,3.3270904 0.46381708,5.7971335 0.85869581,14.182853 7.8095368,16.049264 c 0.1231557,0.03331 0.2527336,0.03331 0.3758825,0 C 15.136261,14.18487 15.534379,5.7971335 15.498041,3.3270904 15.492927,2.9485593 15.201645,2.6369422 14.825132,2.6016119 11.692914,2.308882 9.1360516,0.6330927 8.2931896,0.0203775 8.2053751,-0.0442217 8.102762,-0.0742469 7.9987922,-0.0742469 Z m -0.00256,4.1557334 c 2.2304878,0 4.4628208,0.91861 6.0693178,2.4156371 0.09032,0.08484 0.09273,0.2252251 0.0079,0.3127974 l -0.730737,0.7622784 c -0.08484,0.09032 -0.227737,0.09535 -0.318054,0.0105 C 12.387029,6.9915497 11.658139,6.5235635 10.853522,6.1869371 9.9503797,5.8119967 8.9896376,5.6191708 7.9989188,5.6191708 c -0.9907189,0 -1.9488312,0.1900885 -2.8519737,0.5677663 -0.8046166,0.333889 -1.5335082,0.8046126 -2.1711803,1.3957603 -0.090318,0.08484 -0.2332152,0.07981 -0.3180554,-0.0105 L 1.926974,6.809921 C 1.8421338,6.7196032 1.8445428,6.5792319 1.9349144,6.4971236 3.5359381,5.0000965 5.7658592,4.0814865 7.9963456,4.0814865 Z m -0.00525,3.1516309 c 1.5025006,0 2.8744678,0.56787 3.9007668,1.495643 0.09578,0.08484 0.0982,0.230366 0.0079,0.320684 l -0.783307,0.772793 c -0.08484,0.08211 -0.21734,0.08725 -0.304912,0.0079 -0.774512,-0.689672 -1.7696123,-1.064563 -2.8178042,-1.064563 -1.0481919,0 -2.040663,0.377627 -2.815175,1.064563 -0.087572,0.07936 -0.222699,0.07422 -0.3075393,-0.0079 L 4.0902759,9.0494444 c -0.090358,-0.09032 -0.087693,-0.235843 0.00269,-0.320684 1.0262982,-0.927773 2.3956369,-1.495643 3.8981361,-1.495643 z m 0.00525,3.0938006 c 0.6404108,0 1.2220256,0.269625 1.627072,0.696565 0.082054,0.08757 0.079578,0.2227 -0.00525,0.30754 l -1.461472,1.443074 c -0.087572,0.08757 -0.2304818,0.08757 -0.3180541,0 l -1.461469,-1.443074 c -0.084881,-0.08484 -0.08737,-0.219968 -0.00525,-0.30754 0.4050464,-0.429676 0.9840328,-0.696565 1.6244423,-0.696565 z"
     inkscape:export-xdpi="2049"
     inkscape:export-ydpi="2049" />
</svg>
