<?xml version="1.0" encoding="UTF-8" standalone="no"?>
<svg
   xmlns:dc="http://purl.org/dc/elements/1.1/"
   xmlns:cc="http://creativecommons.org/ns#"
   xmlns:rdf="http://www.w3.org/1999/02/22-rdf-syntax-ns#"
   xmlns:svg="http://www.w3.org/2000/svg"
   xmlns="http://www.w3.org/2000/svg"
   xmlns:sodipodi="http://sodipodi.sourceforge.net/DTD/sodipodi-0.dtd"
   xmlns:inkscape="http://www.inkscape.org/namespaces/inkscape"
   viewBox="0 0 16 16"
   version="1.1"
   id="svg17"
   sodipodi:docname="vpn_on.svg"
   inkscape:version="1.0.2 (1.0.2+r75+1)"
   inkscape:export-filename="/home/david/Descargas/carpeta sin título/NordVPNindicator/vpn_error.png"
   inkscape:export-xdpi="2049"
   inkscape:export-ydpi="2049">
  <metadata
     id="metadata21">
    <rdf:RDF>
      <cc:Work
         rdf:about="">
        <dc:format>image/svg+xml</dc:format>
        <dc:type
           rdf:resource="http://purl.org/dc/dcmitype/StillImage" />
        <dc:title></dc:title>
      </cc:Work>
    </rdf:RDF>
  </metadata>
  <sodipodi:namedview
     pagecolor="#ffffff"
     bordercolor="#666666"
     borderopacity="1"
     objecttolerance="10"
     gridtolerance="10"
     guidetolerance="10"
     inkscape:pageopacity="0"
     inkscape:pageshadow="2"
     inkscape:window-width="1920"
     inkscape:window-height="1017"
     id="namedview19"
     showgrid="false"
     inkscape:zoom="22.102873"
     inkscape:cx="7.161853"
     inkscape:cy="11.413068"
     inkscape:window-x="1600"
     inkscape:window-y="30"
     inkscape:window-maximized="1"
     inkscape:current-layer="svg17"
     inkscape:document-rotation="0"
     showborder="true" />
  <defs
     id="defs13">
    <linearGradient
       gradientUnits="userSpaceOnUse"
       y2="-2.623"
       x2="0"
       y1="986.67"
       id="0">
      <stop
         stop-color="#ffce3b"
         id="stop2" />
      <stop
         offset="1"
         stop-color="#ffd762"
         id="stop4" />
    </linearGradient>
    <linearGradient
       y2="-2.623"
       x2="0"
       y1="986.67"
       gradientUnits="userSpaceOnUse"
       id="linearGradient11">
      <stop
         stop-color="#ffce3b"
         id="stop7" />
      <stop
         offset="1"
         stop-color="#fef4ab"
         id="stop9" />
    </linearGradient>
  </defs>
  <g
     id="g8"
     transform="translate(-156.0269,-161.25748)" />
  <g
     id="g10"
     transform="translate(-156.0269,-161.25748)" />
  <g
     id="g12"
     transform="translate(-156.0269,-161.25748)" />
  <g
     id="g14"
     transform="translate(-156.0269,-161.25748)" />
  <g
     id="g16"
     transform="translate(-156.0269,-161.25748)" />
  <g
     id="g18"
     transform="translate(-156.0269,-161.25748)" />
  <g
     id="g20"
     transform="translate(-156.0269,-161.25748)" />
  <g
     id="g22"
     transform="translate(-156.0269,-161.25748)" />
  <g
     id="g24"
     transform="translate(-156.0269,-161.25748)" />
  <g
     id="g26"
     transform="translate(-156.0269,-161.25748)" />
  <g
     id="g28"
     transform="translate(-156.0269,-161.25748)" />
  <g
     id="g30"
     transform="translate(-156.0269,-161.25748)" />
  <g
     id="g32"
     transform="translate(-156.0269,-161.25748)" />
  <g
     id="g34"
     transform="translate(-156.0269,-161.25748)" />
  <g
     id="g36"
     transform="translate(-156.0269,-161.25748)" />
  <path
     id="path15-6-7-6-23"
     style="fill:#71c837;fill-opacity:1;stroke-width:1.34581"
     d="m 7.9987927,-0.07424754 c -0.1039649,0 -0.2065776,0.0300256 -0.2943974,0.0946248 C 6.8635517,0.6330936 4.3073007,2.307871 1.1750816,2.6016116 0.79856915,2.6359295 0.50923867,2.9485591 0.50217318,3.3270903 0.46381743,5.7971325 0.85869615,14.182854 7.8095372,16.049265 c 0.1231556,0.03331 0.2527336,0.03331 0.3758822,0 C 15.136261,14.184871 15.534379,5.7971325 15.49804,3.3270903 15.492927,2.9485591 15.201645,2.636942 14.825132,2.6016116 11.692913,2.3088817 9.1360518,0.63309223 8.2931905,0.02037682 8.2053759,-0.04422236 8.1027624,-0.07424754 7.9987927,-0.07424754 Z m -0.00269,4.15573414 c 2.2304883,0 4.4628203,0.9186088 6.0693173,2.4156361 0.09032,0.08484 0.09273,0.2252252 0.0079,0.3127975 l -0.730722,0.7622787 c -0.08484,0.090317 -0.227736,0.095352 -0.318053,0.010494 C 12.386895,6.9915489 11.658004,6.5235627 10.853388,6.1869362 9.9502454,5.8119957 8.9895041,5.6191697 7.9987846,5.6191697 c -0.990719,0 -1.9488316,0.1900887 -2.8519742,0.5677665 C 4.3421937,6.5208253 3.613302,6.9915489 2.9756297,7.5826963 2.8853124,7.6675364 2.7424145,7.6625029 2.6575742,7.5722022 L 1.9268387,6.8099202 C 1.8419985,6.7196024 1.8444075,6.579231 1.9347792,6.4971227 3.5358031,5.0000954 5.7657246,4.0814866 7.9962113,4.0814866 Z m -0.00525,3.1516297 c 1.5025002,0 2.8744663,0.5678701 3.9007643,1.4956439 0.09579,0.084837 0.0982,0.230366 0.0079,0.3206837 L 11.116211,9.822236 c -0.08484,0.08211 -0.21734,0.08725 -0.304912,0.008 C 10.036837,9.1405224 9.0417385,8.7656321 7.9935464,8.7656321 c -1.048192,0 -2.0406633,0.377627 -2.8151755,1.0645619 -0.087572,0.07936 -0.222699,0.07423 -0.3075394,-0.008 L 4.090141,9.0494439 C 3.9997825,8.9591204 4.0024478,8.8136003 4.0928342,8.7287602 5.119131,7.8009864 6.48847,7.2331163 7.9909694,7.2331163 Z m 0.00525,3.0938017 c 0.6404111,0 1.2220256,0.269625 1.6270719,0.696565 0.082057,0.08757 0.079574,0.222701 -0.0052,0.307541 l -1.461521,1.443074 c -0.087573,0.08758 -0.230482,0.08758 -0.3180542,0 L 6.3769785,11.331024 c -0.08488,-0.08484 -0.087371,-0.219969 -0.00525,-0.307541 0.4050464,-0.429676 0.9840329,-0.696565 1.6244425,-0.696565 z"
     inkscape:export-xdpi="2049"
     inkscape:export-ydpi="2049" />
</svg>
