<?xml version="1.0" encoding="UTF-8" standalone="no"?>
<svg
   xmlns:dc="http://purl.org/dc/elements/1.1/"
   xmlns:cc="http://creativecommons.org/ns#"
   xmlns:rdf="http://www.w3.org/1999/02/22-rdf-syntax-ns#"
   xmlns:svg="http://www.w3.org/2000/svg"
   xmlns="http://www.w3.org/2000/svg"
   xmlns:sodipodi="http://sodipodi.sourceforge.net/DTD/sodipodi-0.dtd"
   xmlns:inkscape="http://www.inkscape.org/namespaces/inkscape"
   viewBox="0 0 16 16"
   version="1.1"
   id="svg17"
   sodipodi:docname="vpn_error.svg"
   inkscape:version="1.0.2 (1.0.2+r75+1)"
   inkscape:export-filename="/home/david/Descargas/carpeta sin título/NordVPNindicator/vpn_error.png"
   inkscape:export-xdpi="2049"
   inkscape:export-ydpi="2049">
  <metadata
     id="metadata21">
    <rdf:RDF>
      <cc:Work
         rdf:about="">
        <dc:format>image/svg+xml</dc:format>
        <dc:type
           rdf:resource="http://purl.org/dc/dcmitype/StillImage" />
        <dc:title></dc:title>
      </cc:Work>
    </rdf:RDF>
  </metadata>
  <sodipodi:namedview
     pagecolor="#ffffff"
     bordercolor="#666666"
     borderopacity="1"
     objecttolerance="10"
     gridtolerance="10"
     guidetolerance="10"
     inkscape:pageopacity="0"
     inkscape:pageshadow="2"
     inkscape:window-width="1600"
     inkscape:window-height="867"
     id="namedview19"
     showgrid="false"
     inkscape:zoom="25.911857"
     inkscape:cx="-3.5063759"
     inkscape:cy="11.107171"
     inkscape:window-x="0"
     inkscape:window-y="0"
     inkscape:window-maximized="1"
     inkscape:current-layer="svg17"
     inkscape:document-rotation="0"
     showborder="true" />
  <defs
     id="defs13">
    <linearGradient
       gradientUnits="userSpaceOnUse"
       y2="-2.623"
       x2="0"
       y1="986.67"
       id="0">
      <stop
         stop-color="#ffce3b"
         id="stop2" />
      <stop
         offset="1"
         stop-color="#ffd762"
         id="stop4" />
    </linearGradient>
    <linearGradient
       y2="-2.623"
       x2="0"
       y1="986.67"
       gradientUnits="userSpaceOnUse"
       id="linearGradient11">
      <stop
         stop-color="#ffce3b"
         id="stop7" />
      <stop
         offset="1"
         stop-color="#fef4ab"
         id="stop9" />
    </linearGradient>
  </defs>
  <g
     id="g8"
     transform="translate(-156.0269,-161.25748)" />
  <g
     id="g10"
     transform="translate(-156.0269,-161.25748)" />
  <g
     id="g12"
     transform="translate(-156.0269,-161.25748)" />
  <g
     id="g14"
     transform="translate(-156.0269,-161.25748)" />
  <g
     id="g16"
     transform="translate(-156.0269,-161.25748)" />
  <g
     id="g18"
     transform="translate(-156.0269,-161.25748)" />
  <g
     id="g20"
     transform="translate(-156.0269,-161.25748)" />
  <g
     id="g22"
     transform="translate(-156.0269,-161.25748)" />
  <g
     id="g24"
     transform="translate(-156.0269,-161.25748)" />
  <g
     id="g26"
     transform="translate(-156.0269,-161.25748)" />
  <g
     id="g28"
     transform="translate(-156.0269,-161.25748)" />
  <g
     id="g30"
     transform="translate(-156.0269,-161.25748)" />
  <g
     id="g32"
     transform="translate(-156.0269,-161.25748)" />
  <g
     id="g34"
     transform="translate(-156.0269,-161.25748)" />
  <g
     id="g36"
     transform="translate(-156.0269,-161.25748)" />
  <path
     id="path15-6-7-6-23-3"
     style="fill:#ff5555;fill-opacity:1;stroke-width:1.34582"
     d="m 7.9987915,-0.07424475 c -0.103964,0 -0.206577,0.03003 -0.294397,0.09462 -0.840843,0.612717 -3.3970942,2.28749405 -6.5293131,2.58123505 -0.37651242,0.03432 -0.66584282,0.3469479 -0.67290832,0.725479 -0.038356,2.4700419 0.356523,10.8557627 7.30736342,12.7221727 0.123156,0.03331 0.252733,0.03331 0.375882,0 C 15.13626,14.184869 15.534379,5.7971312 15.49804,3.3270892 15.49294,2.9485582 15.201644,2.6369412 14.825132,2.6016102 11.692913,2.3088802 9.1360515,0.63309125 8.2931895,0.02037525 c -0.08782,-0.0646 -0.190428,-0.09462 -0.294398,-0.09462 z m -0.0027,4.15573405 c 2.2304875,0 4.4628205,0.91861 6.0693175,2.4156359 0.09032,0.08484 0.09273,0.225227 0.0079,0.312797 l -0.730737,0.762279 c -0.08484,0.09032 -0.227737,0.09535 -0.318054,0.0105 -0.637674,-0.591145 -1.366564,-1.0591319 -2.171181,-1.395758 -0.9031425,-0.374942 -1.8638845,-0.567767 -2.8546035,-0.567767 -0.990719,0 -1.948831,0.190089 -2.851974,0.567767 -0.8046162,0.3338881 -1.5335079,0.804613 -2.1711801,1.395758 -0.090318,0.08484 -0.2332152,0.07981 -0.3180555,-0.0105 L 1.9268385,6.8099222 c -0.08484,-0.09032 -0.082431,-0.230689 0.00794,-0.312797 1.601024,-1.497026 3.830946,-2.4156359 6.061432,-2.4156359 z m -0.0052,3.15163 c 1.502501,0 2.8744675,0.567871 3.9007655,1.495643 0.09578,0.08484 0.09821,0.230367 0.0079,0.320686 l -0.783307,0.77279 c -0.08484,0.08211 -0.21734,0.08725 -0.304913,0.0079 -0.774512,-0.689673 -1.7696105,-1.064563 -2.8178025,-1.064563 -1.048192,0 -2.040664,0.377627 -2.815176,1.064563 -0.08757,0.07936 -0.222699,0.07422 -0.307539,-0.0079 L 4.0901406,9.0494462 c -0.090358,-0.09032 -0.087693,-0.2358429 0.00269,-0.320684 1.0262979,-0.9277729 2.3956369,-1.495643 3.8981359,-1.495643 z m 0.0052,3.0938007 c 0.640411,0 1.222026,0.269625 1.627072,0.696566 0.08205,0.08757 0.07958,0.222701 -0.0052,0.30754 l -1.461472,1.443073 c -0.08757,0.08757 -0.230482,0.08757 -0.318054,0 l -1.46142,-1.443073 c -0.08488,-0.08484 -0.08737,-0.219969 -0.0052,-0.30754 0.405046,-0.429677 0.984032,-0.696566 1.624442,-0.696566 z"
     inkscape:export-xdpi="2049"
     inkscape:export-ydpi="2049"
     inkscape:export-filename="/home/david/Descargas/carpeta sin título/NordVPNindicator/vpn_error.png" />
</svg>
